:FULLY-SPECIFIED
:DEGREES
1
root 3.76927 16.3824 -1.92156 -34.3502 -88.8646 49.9981
lowerback -7.83434 2.05782 1.83306
upperback -4.32258 2.50531 -1.53768
thorax 0.0697967 1.15669 -2.41679
lowerneck -14.4606 -3.0434 0.702888
upperneck 19.5114 -5.02131 2.10777
head 8.50354 -2.16839 0.00269587
rclavicle 3.97569e-015 9.24349e-015
rhumerus -25.5438 3.55362 -83.6257
rradius 39.7338
rwrist 13.2715
rhand -27.8825 -5.26693
rfingers 7.12502
rthumb -1.27247 -35.2429
lclavicle 3.97569e-015 9.24349e-015
lhumerus -44.3542 -3.12398 86.4967
lradius 33.0307
lwrist -10.6158
lhand -39.4608 -4.27516
lfingers 7.12502
lthumb -12.4479 25.3341
rfemur -5.7702 8.62694 26.1471
rtibia 16.2516
rfoot -17.4817 -20.3088
rtoes -18.3298
lfemur -40.236 -21.4786 -13.0939
ltibia 11.1546
lfoot -6.99314 26.6022
ltoes -13.6946
2
root 3.74354 16.363 -1.90872 -30.9934 -88.9314 46.6189
lowerback -7.92278 2.06514 1.80971
upperback -4.30125 2.5152 -1.49377
thorax 0.13827 1.16349 -2.35419
lowerneck -14.6425 -3.07826 0.69252
upperneck 19.6203 -5.08237 2.14107
head 8.57531 -2.19048 0.00409214
rclavicle -3.18055e-015 -8.94531e-015
rhumerus -25.7269 3.29393 -83.7078
rradius 39.7234
rwrist 13.2946
rhand -27.9557 -5.23867
rfingers 7.12502
rthumb -1.34312 -35.2142
lclavicle -3.18055e-015 -8.94531e-015
lhumerus -44.1624 -3.08766 86.4897
lradius 32.8657
lwrist -10.7346
lhand -39.4716 -4.27978
lfingers 7.12502
lthumb -12.4584 25.3289
rfemur -5.51648 8.22772 26.2261
rtibia 17.0673
rfoot -17.7196 -19.7281
rtoes -19.6235
lfemur -39.776 -19.7591 -14.7331
ltibia 12.3234
lfoot -6.45398 24.3903
ltoes -15.1576
3
root 3.71185 16.34 -1.89282 -26.3284 -88.9844 41.9115
lowerback -8.0168 2.05366 1.79126
upperback -4.35164 2.49634 -1.43152
thorax 0.133486 1.15318 -2.27913
lowerneck -14.531 -3.0878 0.668032
upperneck 19.6573 -5.102 2.18003
head 8.56959 -2.19958 0.0203023
rclavicle -2.54444e-014 -1.2921e-014
rhumerus -26.1006 3.10761 -83.7945
rradius 39.6549
rwrist 13.2102
rhand -28.0684 -5.2505
rfingers 7.12502
rthumb -1.45193 -35.2253
lclavicle -2.54444e-014 -1.2921e-014
lhumerus -44.2064 -2.94149 86.474
lradius 32.8015
lwrist -10.9112
lhand -39.5174 -4.29684
lfingers 7.12502
lthumb -12.5026 25.3091
rfemur -5.27189 7.70655 26.302
rtibia 17.9462
rfoot -17.8348 -19.1032
rtoes -21.8899
lfemur -39.3005 -18.0811 -16.3088
ltibia 13.5871
lfoot -6.8148 22.2453
ltoes -15.392
4
root 3.67763 16.3193 -1.87441 -25.9103 -89.097 41.4818
lowerback -8.12581 2.08115 1.79736
upperback -4.43445 2.52623 -1.43461
thorax 0.109784 1.16499 -2.28135
lowerneck -14.4495 -3.10541 0.717345
upperneck 19.7257 -5.16258 2.25868
head 8.57989 -2.21804 0.0319782
rclavicle 2.54444e-014 5.66536e-015
rhumerus -26.595 2.86007 -83.9462
rradius 39.6875
rwrist 13.1386
rhand -27.9437 -5.15361
rfingers 7.12502
rthumb -1.33158 -35.1292
lclavicle 2.54444e-014 5.66536e-015
lhumerus -44.2832 -2.99581 86.4445
lradius 32.7687
lwrist -10.8352
lhand -39.5367 -4.38608
lfingers 7.12502
lthumb -12.5211 25.2188
rfemur -5.03157 7.22298 26.2735
rtibia 18.7472
rfoot -17.9215 -18.3033
rtoes -22.7092
lfemur -38.7725 -16.8916 -17.4268
ltibia 14.5188
lfoot -6.7969 20.4647
ltoes -15.6559
5
root 3.63839 16.322 -1.85533 -34.3389 -89.2374 49.8997
lowerback -8.24838 2.14021 1.70805
upperback -4.51418 2.60441 -1.4518
thorax 0.0958568 1.20241 -2.23986
lowerneck -14.381 -3.13435 0.742656
upperneck 19.8103 -5.22273 2.28811
head 8.59704 -2.24258 0.0308464
rclavicle 2.54444e-014 -1.39149e-014
rhumerus -27.0204 2.56359 -84.056
rradius 39.4825
rwrist 13.17
rhand -27.9324 -5.20187
rfingers 7.12502
rthumb -1.32062 -35.1775
lclavicle 2.54444e-014 -1.39149e-014
lhumerus -44.3808 -2.98639 86.4417
lradius 32.7942
lwrist -10.9624
lhand -39.6837 -4.18488
lfingers 7.12502
lthumb -12.6629 25.4113
rfemur -4.83441 6.70787 26.1217
rtibia 19.5693
rfoot -17.6949 -17.4631
rtoes -24.2378
lfemur -38.4002 -16.5651 -17.8909
ltibia 15.2624
lfoot -6.20312 19.571
ltoes -13.5301
6
root 3.59565 16.3291 -1.83032 -49.3015 -89.2428 64.8476
lowerback -8.38228 2.14911 1.55873
upperback -4.57432 2.62066 -1.4886
thorax 0.103364 1.21016 -2.18938
lowerneck -14.4265 -3.14981 0.726587
upperneck 19.9123 -5.26256 2.34754
head 8.64273 -2.25514 0.046711
rclavicle 9.54166e-015 -6.95746e-016
rhumerus -27.4738 2.22226 -84.1493
rradius 39.356
rwrist 13.3184
rhand -27.8687 -5.25178
rfingers 7.12502
rthumb -1.25913 -35.2278
lclavicle 9.54166e-015 -6.95746e-016
lhumerus -44.4394 -2.81595 86.3833
lradius 32.8171
lwrist -11.0206
lhand -39.7411 -4.24132
lfingers 7.12502
lthumb -12.7182 25.3514
rfemur -4.75925 6.17857 25.7977
rtibia 20.6407
rfoot -17.5399 -16.4549
rtoes -25.6233
lfemur -38.2552 -17.1355 -17.8394
ltibia 15.7232
lfoot -4.81801 19.756
ltoes -11.576
7
root 3.5531 16.3365 -1.80745 -65.4754 -89.2049 81.0104
lowerback -8.47224 2.16004 1.40704
upperback -4.6785 2.63883 -1.54129
thorax 0.0417048 1.21705 -2.15629
lowerneck -14.3161 -3.15151 0.680904
upperneck 19.9426 -5.285 2.46607
head 8.6382 -2.25939 0.0927494
rclavicle -5.56597e-015 1.0138e-014
rhumerus -27.9368 1.80876 -84.2869
rradius 39.0309
rwrist 13.4597
rhand -27.8656 -5.21753
rfingers 7.12502
rthumb -1.25609 -35.1936
lclavicle -5.56597e-015 1.0138e-014
lhumerus -44.5653 -2.77288 86.335
lradius 32.8721
lwrist -10.9232
lhand -39.8995 -4.2456
lfingers 7.12502
lthumb -12.8709 25.3375
rfemur -4.84778 5.73594 25.4589
rtibia 21.9569
rfoot -17.1843 -15.543
rtoes -26.9736
lfemur -37.9995 -17.3684 -17.9782
ltibia 15.9753
lfoot -3.37575 19.9948
ltoes -12.2502
8
root 3.51079 16.3492 -1.78603 -77.7572 -88.8882 93.3524
lowerback -8.61175 2.1162 0.96648
upperback -4.79361 2.60293 -1.60544
thorax -0.0186233 1.20116 -1.97638
lowerneck -14.2629 -3.15595 0.593728
upperneck 19.9986 -5.28929 2.52557
head 8.65172 -2.26274 0.126758
rclavicle 2.22639e-014 -1.83876e-014
rhumerus -28.4389 1.27978 -84.344
rradius 38.7222
rwrist 13.7402
rhand -27.7043 -5.12563
rfingers 7.12502
rthumb -1.1003 -35.1025
lclavicle 2.22639e-014 -1.83876e-014
lhumerus -44.5947 -2.54803 86.2676
lradius 32.7503
lwrist -11.1045
lhand -40.0346 -4.21477
lfingers 7.12502
lthumb -13.0011 25.3601
rfemur -5.28209 5.12429 24.8551
rtibia 23.7204
rfoot -16.9449 -14.3521
rtoes -28.1148
lfemur -37.6678 -17.1284 -18.6613
ltibia 16.1679
lfoot -2.21909 19.8774
ltoes -13.1922
9
root 3.46981 16.354 -1.76528 -81.2737 -88.5883 96.9905
lowerback -8.83759 2.06112 0.638835
upperback -4.89287 2.54461 -1.7212
thorax -0.00886103 1.17211 -1.91185
lowerneck -14.3319 -3.14391 0.595161
upperneck 20.0874 -5.29493 2.5872
head 8.69668 -2.25731 0.144289
rclavicle -1.11319e-014 1.99779e-014
rhumerus -28.8924 0.551878 -84.4791
rradius 38.3074
rwrist 13.9371
rhand -27.8752 -5.20586
rfingers 7.12502
rthumb -1.26539 -35.1819
lclavicle -1.11319e-014 1.99779e-014
lhumerus -44.5387 -2.50817 86.153
lradius 32.6288
lwrist -11.1026
lhand -40.0514 -4.12777
lfingers 7.12502
lthumb -13.0173 25.4461
rfemur -6.04093 4.34592 24.282
rtibia 25.8589
rfoot -16.5187 -13.1947
rtoes -28.4024
lfemur -37.3301 -16.6928 -19.4703
ltibia 16.4994
lfoot -1.19391 19.6342
ltoes -14.4366
10
root 3.43022 16.3596 -1.74328 -79.6738 -88.2594 95.4149
lowerback -8.88595 1.95487 0.249797
upperback -4.97096 2.42606 -1.76763
thorax -0.0818171 1.11605 -1.75232
lowerneck -14.4109 -3.15024 0.493834
upperneck 20.0876 -5.27922 2.58757
head 8.71353 -2.25584 0.161565
rclavicle 3.18055e-015 2.68359e-015
rhumerus -29.3813 -0.0422911 -84.4931
rradius 37.8559
rwrist 13.889
rhand -28.0853 -4.99759
rfingers 7.12502
rthumb -1.4683 -34.9723
lclavicle 3.18055e-015 2.68359e-015
lhumerus -44.4485 -2.3122 86.1008
lradius 32.4449
lwrist -11.3987
lhand -40.1796 -4.11596
lfingers 7.12502
lthumb -13.1409 25.45
rfemur -6.89884 3.2341 23.6599
rtibia 28.3185
rfoot -15.9441 -11.939
rtoes -29.6786
lfemur -36.7771 -15.9006 -20.65
ltibia 17.0015
lfoot -0.689863 18.7947
ltoes -13.0333
11
root 3.39546 16.3685 -1.71782 -75.6715 -88.0902 91.4171
lowerback -8.90085 1.86566 0.164065
upperback -4.98756 2.31231 -1.82788
thorax -0.0955685 1.05898 -1.77636
lowerneck -14.5263 -3.16259 0.444436
upperneck 19.9577 -5.27079 2.57558
head 8.69104 -2.25531 0.166032
rclavicle 1.59028e-014 2.88238e-015
rhumerus -29.7818 -0.832479 -84.4277
rradius 37.4436
rwrist 14.3853
rhand -28.0317 -5.06363
rfingers 7.12502
rthumb -1.41653 -35.0387
lclavicle 1.59028e-014 2.88238e-015
lhumerus -44.1602 -2.24133 86.0559
lradius 32.1867
lwrist -11.6718
lhand -40.2697 -4.00719
lfingers 7.12502
lthumb -13.2277 25.5531
rfemur -7.93763 1.93568 23.165
rtibia 31.0195
rfoot -14.9999 -10.3961
rtoes -30.5729
lfemur -36.3045 -15.076 -21.6623
ltibia 17.6239
lfoot -0.709863 17.7173
ltoes -10.6254
12
root 3.36446 16.3805 -1.69491 -68.8255 -88.0952 84.5774
lowerback -8.88452 1.73522 0.170725
upperback -5.09377 2.13168 -1.77474
thorax -0.222226 0.966021 -1.74359
lowerneck -14.3734 -3.14594 0.382554
upperneck 19.8283 -5.22285 2.57183
head 8.6199 -2.24183 0.184505
rclavicle -1.35174e-014 7.85199e-015
rhumerus -30.3892 -1.56864 -84.3228
rradius 37.0612
rwrist 14.8381
rhand -27.9547 -5.16351
rfingers 7.12502
rthumb -1.34214 -35.139
lclavicle -1.35174e-014 7.85199e-015
lhumerus -44.0944 -2.06863 86.0002
lradius 32.0599
lwrist -11.9207
lhand -40.134 -3.88588
lfingers 7.12502
lthumb -13.097 25.6829
rfemur -9.17685 0.525907 22.864
rtibia 33.8971
rfoot -13.6787 -8.71377
rtoes -31.1567
lfemur -36.0293 -14.4276 -22.3048
ltibia 18.3763
lfoot -1.27726 16.3031
ltoes -9.10963
13
root 3.33637 16.3894 -1.66833 -62.6602 -88.0167 78.3383
lowerback -8.79179 1.61593 0.171781
upperback -5.12667 1.97122 -1.74688
thorax -0.313192 0.885217 -1.73226
lowerneck -14.3084 -3.14911 0.415361
upperneck 19.6578 -5.19041 2.43316
head 8.54447 -2.24067 0.139461
rclavicle 1.59028e-014 0
rhumerus -31.0315 -2.25511 -84.1592
rradius 36.8702
rwrist 15.1485
rhand -27.7396 -5.21368
rfingers 7.12502
rthumb -1.13439 -35.1904
lclavicle 1.59028e-014 0
lhumerus -43.9292 -2.04027 86.0501
lradius 31.9607
lwrist -11.7705
lhand -40.1046 -4.2374
lfingers 7.12502
lthumb -13.0686 25.3332
rfemur -10.4921 -0.717519 22.4631
rtibia 36.9594
rfoot -11.8894 -7.30853
rtoes -31.2104
lfemur -35.6984 -14.0989 -22.8956
ltibia 19.1608
lfoot -1.6487 15.2136
ltoes -8.39704
14
root 3.31239 16.3944 -1.64403 -57.077 -88.0317 72.5896
lowerback -8.61386 1.53319 0.248365
upperback -5.06534 1.8606 -1.68463
thorax -0.350201 0.831521 -1.72366
lowerneck -14.4423 -3.1353 0.447194
upperneck 19.5284 -5.13754 2.29984
head 8.51928 -2.22497 0.0950155
rclavicle -3.97569e-015 5.96354e-016
rhumerus -31.5423 -2.93182 -83.9681
rradius 36.681
rwrist 15.2414
rhand -27.4462 -5.37133
rfingers 7.12502
rthumb -0.851023 -35.3494
lclavicle -3.97569e-015 5.96354e-016
lhumerus -43.6067 -2.0979 86.1574
lradius 31.8808
lwrist -11.9256
lhand -40.1622 -4.03437
lfingers 7.12502
lthumb -13.1241 25.5326
rfemur -11.8431 -1.68122 22.161
rtibia 40.148
rfoot -9.67581 -6.19432
rtoes -30.5209
lfemur -35.2432 -13.7636 -23.3433
ltibia 19.888
lfoot -1.85385 14.8059
ltoes -7.36718
15
root 3.29455 16.3977 -1.62136 -51.2958 -87.9973 66.6357
lowerback -8.32371 1.44028 0.266686
upperback -4.97116 1.74324 -1.60204
thorax -0.417528 0.7771 -1.66354
lowerneck -14.7447 -3.14415 0.466675
upperneck 19.388 -5.1039 2.13208
head 8.52039 -2.21956 0.0361936
rclavicle 1.35174e-014 -1.90833e-014
rhumerus -31.8962 -3.68481 -83.6709
rradius 36.3699
rwrist 15.6975
rhand -27.2259 -5.37387
rfingers 7.12502
rthumb -0.63827 -35.3527
lclavicle 1.35174e-014 -1.90833e-014
lhumerus -43.208 -2.18556 86.323
lradius 31.8453
lwrist -12.1418
lhand -40.2877 -4.18801
lfingers 7.12502
lthumb -13.2451 25.3712
rfemur -13.3444 -2.53261 21.8304
rtibia 43.4755
rfoot -6.84917 -5.32386
rtoes -28.212
lfemur -34.7555 -13.4656 -23.7653
ltibia 20.5111
lfoot -2.1559 14.3061
ltoes -6.09793
